{
  "accessors": [
    {
      "bufferView": 2,
      "componentType": 5126,
      "count": 537,
      "max": [
        165.47607421875,
        116.71403503417969,
        3.8484420776367188
      ],
      "min": [
        -131.46099853515625,
        -267.8818359375,
        -50.702808380126953
      ],
      "type": "VEC3"
    },
    {
      "bufferView": 2,
      "byteOffset": 6444,
      "componentType": 5126,
      "count": 537,
      "max": [
        1,
        1,
        1
      ],
      "min": [
        -1,
        -1,
        -1
      ],
      "type": "VEC3"
    },
    {
      "bufferView": 3,
      "componentType": 5126,
      "count": 537,
      "max": [
        1,
        1,
        0.71627193689346313,
        1
      ],
      "min": [
        -1,
        -1,
        -0.88872450590133667,
        -1
      ],
      "type": "VEC4"
    },
    {
      "bufferView": 0,
      "componentType": 5125,
      "count": 822,
      "max": [
        536
      ],
      "min": [
        0
      ],
      "type": "SCALAR"
    },
    {
      "bufferView": 2,
      "byteOffset": 12888,
      "componentType": 5126,
      "count": 72,
      "max": [
        195.05023193359375,
        139.40695190429688,
        79.488822937011719
      ],
      "min": [
        -159.69976806640625,
        115.86248779296875,
        -46.167312622070312
      ],
      "type": "VEC3"
    },
    {
      "bufferView": 2,
      "byteOffset": 13752,
      "componentType": 5126,
      "count": 72,
      "max": [
        1,
        0.992439866065979,
        0.992439866065979
      ],
      "min": [
        -1,
        -0.992439866065979,
        -0.992439866065979
      ],
      "type": "VEC3"
    },
    {
      "bufferView": 3,
      "byteOffset": 8592,
      "componentType": 5126,
      "count": 72,
      "max": [
        5.1302843219015699e-23,
        0.992439866065979,
        0.99243992567062378,
        1
      ],
      "min": [
        -1.2825710804753925e-23,
        -0.99243992567062378,
        -0.99243992567062378,
        -1
      ],
      "type": "VEC4"
    },
    {
      "bufferView": 1,
      "componentType": 5126,
      "count": 72,
      "max": [
        1,
        1
      ],
      "min": [
        0,
        0
      ],
      "type": "VEC2"
    },
    {
      "bufferView": 0,
      "byteOffset": 3288,
      "componentType": 5125,
      "count": 108,
      "max": [
        71
      ],
      "min": [
        0
      ],
      "type": "SCALAR"
    },
    {
      "bufferView": 2,
      "byteOffset": 14616,
      "componentType": 5126,
      "count": 48,
      "max": [
        196.25860595703125,
        155.39508056640625,
        -50.791275024414062
      ],
      "min": [
        -160.48275756835938,
        -296.10903930664062,
        -58.476387023925781
      ],
      "type": "VEC3"
    },
    {
      "bufferView": 2,
      "byteOffset": 15192,
      "componentType": 5126,
      "count": 48,
      "max": [
        0.99999988079071045,
        0.999988853931427,
        1
      ],
      "min": [
        -1,
        -1,
        -1
      ],
      "type": "VEC3"
    },
    {
      "bufferView": 3,
      "byteOffset": 9744,
      "componentType": 5126,
      "count": 48,
      "max": [
        1,
        0.99999988079071045,
        0.00055962166516110301,
        1
      ],
      "min": [
        -0.99998873472213745,
        -1,
        -0.00055999995674937963,
        -1
      ],
      "type": "VEC4"
    },
    {
      "bufferView": 1,
      "byteOffset": 576,
      "componentType": 5126,
      "count": 48,
      "max": [
        1,
        1
      ],
      "min": [
        0,
        0
      ],
      "type": "VEC2"
    },
    {
      "bufferView": 0,
      "byteOffset": 3720,
      "componentType": 5125,
      "count": 72,
      "max": [
        47
      ],
      "min": [
        0
      ],
      "type": "SCALAR"
    },
    {
      "bufferView": 2,
      "byteOffset": 15768,
      "componentType": 5126,
      "count": 24,
      "max": [
        167.69027709960938,
        -269.49847412109375,
        -51.168670654296875
      ],
      "min": [
        -131.68923950195312,
        -295.36257934570312,
        -58.689228057861328
      ],
      "type": "VEC3"
    },
    {
      "bufferView": 2,
      "byteOffset": 16056,
      "componentType": 5126,
      "count": 24,
      "max": [
        0.99999946355819702,
        0.99999988079071045,
        1
      ],
      "min": [
        -0.99999988079071045,
        -0.99999988079071045,
        -1
      ],
      "type": "VEC3"
    },
    {
      "bufferView": 3,
      "byteOffset": 10512,
      "componentType": 5126,
      "count": 24,
      "max": [
        1,
        0.99999946355819702,
        0.00051632802933454514,
        1
      ],
      "min": [
        -0.99999994039535522,
        -0.9999997615814209,
        -0.00017433312314096838,
        -1
      ],
      "type": "VEC4"
    },
    {
      "bufferView": 1,
      "byteOffset": 960,
      "componentType": 5126,
      "count": 24,
      "max": [
        1,
        1
      ],
      "min": [
        0,
        0
      ],
      "type": "VEC2"
    },
    {
      "bufferView": 0,
      "byteOffset": 4008,
      "componentType": 5125,
      "count": 36,
      "max": [
        23
      ],
      "min": [
        0
      ],
      "type": "SCALAR"
    },
    {
      "bufferView": 2,
      "byteOffset": 16344,
      "componentType": 5126,
      "count": 24,
      "max": [
        167.69027709960938,
        155.47166442871094,
        -50.554946899414062
      ],
      "min": [
        -131.68923950195312,
        129.60757446289062,
        -58.07550048828125
      ],
      "type": "VEC3"
    },
    {
      "bufferView": 2,
      "byteOffset": 16632,
      "componentType": 5126,
      "count": 24,
      "max": [
        0.99999946355819702,
        0.99999988079071045,
        1
      ],
      "min": [
        -0.99999988079071045,
        -0.99999988079071045,
        -1
      ],
      "type": "VEC3"
    },
    {
      "bufferView": 3,
      "byteOffset": 10896,
      "componentType": 5126,
      "count": 24,
      "max": [
        1,
        0.99999940395355225,
        0.00051617878489196301,
        1
      ],
      "min": [
        -0.99999994039535522,
        -0.99999982118606567,
        -0.00017403822857886553,
        -1
      ],
      "type": "VEC4"
    },
    {
      "bufferView": 1,
      "byteOffset": 1152,
      "componentType": 5126,
      "count": 24,
      "max": [
        1,
        1
      ],
      "min": [
        0,
        0
      ],
      "type": "VEC2"
    },
    {
      "bufferView": 0,
      "byteOffset": 4152,
      "componentType": 5125,
      "count": 36,
      "max": [
        23
      ],
      "min": [
        0
      ],
      "type": "SCALAR"
    },
    {
      "bufferView": 2,
      "byteOffset": 16920,
      "componentType": 5126,
      "count": 96,
      "max": [
        150.392822265625,
        143.4600830078125,
        90.460968017578125
      ],
      "min": [
        -117.03774261474609,
        103.65008544921875,
        -105.64176177978516
      ],
      "type": "VEC3"
    },
    {
      "bufferView": 2,
      "byteOffset": 18072,
      "componentType": 5126,
      "count": 96,
      "max": [
        1,
        0.99251526594161987,
        0.99995476007461548
      ],
      "min": [
        -1,
        -0.99256289005279541,
        -0.99997735023498535
      ],
      "type": "VEC3"
    },
    {
      "bufferView": 3,
      "byteOffset": 11280,
      "componentType": 5126,
      "count": 96,
      "max": [
        1.6234744180110283e-05,
        0.99995476007461548,
        0.99256294965744019,
        1
      ],
      "min": [
        -4.2725814637378789e-06,
        -0.99997740983963013,
        -0.99251526594161987,
        1
      ],
      "type": "VEC4"
    },
    {
      "bufferView": 1,
      "byteOffset": 1344,
      "componentType": 5126,
      "count": 96,
      "max": [
        1.0116560459136963,
        1
      ],
      "min": [
        0,
        0
      ],
      "type": "VEC2"
    },
    {
      "bufferView": 0,
      "byteOffset": 4296,
      "componentType": 5125,
      "count": 144,
      "max": [
        95
      ],
      "min": [
        0
      ],
      "type": "SCALAR"
    },
    {
      "bufferView": 2,
      "byteOffset": 19224,
      "componentType": 5126,
      "count": 48,
      "max": [
        167.5438232421875,
        101.0008544921875,
        -57.377456665039062
      ],
      "min": [
        -131.79899597167969,
        -270.303466796875,
        -105.92588806152344
      ],
      "type": "VEC3"
    },
    {
      "bufferView": 2,
      "byteOffset": 19800,
      "componentType": 5126,
      "count": 48,
      "max": [
        1,
        1,
        0.99987846612930298
      ],
      "min": [
        -1,
        -0.99999463558197021,
        -1
      ],
      "type": "VEC3"
    },
    {
      "bufferView": 3,
      "byteOffset": 12816,
      "componentType": 5126,
      "count": 48,
      "max": [
        0,
        0.99987852573394775,
        0.99999463558197021,
        1
      ],
      "min": [
        -1.9524754836264722e-25,
        -1,
        -1,
        -1
      ],
      "type": "VEC4"
    },
    {
      "bufferView": 1,
      "byteOffset": 2112,
      "componentType": 5126,
      "count": 48,
      "max": [
        1,
        1
      ],
      "min": [
        0,
        0
      ],
      "type": "VEC2"
    },
    {
      "bufferView": 0,
      "byteOffset": 4872,
      "componentType": 5125,
      "count": 72,
      "max": [
        47
      ],
      "min": [
        0
      ],
      "type": "SCALAR"
    },
    {
      "bufferView": 2,
      "byteOffset": 20376,
      "componentType": 5126,
      "count": 49,
      "max": [
        179.992919921875,
        123.42002868652344,
        -58.197998046875
      ],
      "min": [
        -144.06599426269531,
        -269.82501220703125,
        -106.02201843261719
      ],
      "type": "VEC3"
    },
    {
      "bufferView": 2,
      "byteOffset": 20964,
      "componentType": 5126,
      "count": 49,
      "max": [
        1,
        1,
        1
      ],
      "min": [
        -1,
        -1,
        -1
      ],
      "type": "VEC3"
    },
    {
      "bufferView": 3,
      "byteOffset": 13584,
      "componentType": 5126,
      "count": 49,
      "max": [
        1,
        1,
        1,
        1
      ],
      "min": [
        -1.1652302589482133e-07,
        -1,
        -1,
        -1
      ],
      "type": "VEC4"
    },
    {
      "bufferView": 1,
      "byteOffset": 2496,
      "componentType": 5126,
      "count": 49,
      "max": [
        0.99950098991394043,
        0.99950098991394043
      ],
      "min": [
        0.00049900001613423228,
        -1.5941920280456543
      ],
      "type": "VEC2"
    },
    {
      "bufferView": 0,
      "byteOffset": 5160,
      "componentType": 5125,
      "count": 72,
      "max": [
        48
      ],
      "min": [
        0
      ],
      "type": "SCALAR"
    }
  ],
  "asset": {
    "generator": "Sketchfab (OSG glTF plugin)",
    "version": "2.0"
  },
  "bufferViews": [
    {
      "buffer": 0,
      "byteLength": 5448,
      "byteOffset": 0,
      "name": "floatBufferViews",
      "target": 34963
    },
    {
      "buffer": 0,
      "byteLength": 2888,
      "byteOffset": 5448,
      "byteStride": 8,
      "name": "floatBufferViews",
      "target": 34962
    },
    {
      "buffer": 0,
      "byteLength": 21552,
      "byteOffset": 8336,
      "byteStride": 12,
      "name": "floatBufferViews",
      "target": 34962
    },
    {
      "buffer": 0,
      "byteLength": 14368,
      "byteOffset": 29888,
      "byteStride": 16,
      "name": "floatBufferViews",
      "target": 34962
    }
  ],
  "buffers": [
    {
      "byteLength": 44256,
      "uri": "scene.bin"
    }
  ],
  "images": [
    {
      "uri": "textures/wire_008008136_baseColor.jpg"
    },
    {
      "uri": "textures/wire_087224143_baseColor.jpg"
    },
    {
      "uri": "textures/wire_134006006_baseColor.jpg"
    },
    {
      "uri": "textures/wire_008110134_baseColor.jpg"
    },
    {
      "uri": "textures/wire_028149177_baseColor.jpg"
    },
    {
      "uri": "textures/wire_224198087_baseColor.jpg"
    },
    {
      "uri": "textures/wire_184228153_baseColor.jpg"
    }
  ],
  "materials": [
    {
      "doubleSided": true,
      "emissiveFactor": [
        0,
        0,
        0
      ],
      "name": "_Snow_1_",
      "pbrMetallicRoughness": {
        "baseColorFactor": [
          0.91996408689999998,
          0.92135604699999996,
          0.77175886309999997,
          1
        ]
      }
    },
    {
      "doubleSided": true,
      "emissiveFactor": [
        0,
        0,
        0
      ],
      "name": "wire_008008136",
      "pbrMetallicRoughness": {
        "baseColorFactor": [
          0.62,
          0.62,
          0.62,
          1
        ],
        "baseColorTexture": {
          "index": 0,
          "texCoord": 0
        }
      }
    },
    {
      "doubleSided": true,
      "emissiveFactor": [
        0,
        0,
        0
      ],
      "name": "wire_008110134",
      "pbrMetallicRoughness": {
        "baseColorFactor": [
          1,
          1,
          1,
          1
        ],
        "baseColorTexture": {
          "index": 3,
          "texCoord": 0
        }
      }
    },
    {
      "doubleSided": true,
      "emissiveFactor": [
        0,
        0,
        0
      ],
      "name": "wire_028149177",
      "pbrMetallicRoughness": {
        "baseColorFactor": [
          1,
          1,
          1,
          1
        ],
        "baseColorTexture": {
          "index": 4,
          "texCoord": 0
        }
      }
    },
    {
      "doubleSided": true,
      "emissiveFactor": [
        0,
        0,
        0
      ],
      "name": "wire_087224143",
      "pbrMetallicRoughness": {
        "baseColorFactor": [
          1,
          1,
          1,
          1
        ],
        "baseColorTexture": {
          "index": 1,
          "texCoord": 0
        }
      }
    },
    {
      "doubleSided": true,
      "emissiveFactor": [
        0,
        0,
        0
      ],
      "name": "wire_134006006",
      "pbrMetallicRoughness": {
        "baseColorFactor": [
          1,
          1,
          1,
          1
        ],
        "baseColorTexture": {
          "index": 2,
          "texCoord": 0
        }
      }
    },
    {
      "doubleSided": true,
      "emissiveFactor": [
        0,
        0,
        0
      ],
      "name": "wire_184228153",
      "pbrMetallicRoughness": {
        "baseColorFactor": [
          1,
          1,
          1,
          1
        ],
        "baseColorTexture": {
          "index": 6,
          "texCoord": 0
        }
      }
    },
    {
      "doubleSided": true,
      "emissiveFactor": [
        0,
        0,
        0
      ],
      "name": "wire_224198087",
      "pbrMetallicRoughness": {
        "baseColorFactor": [
          1,
          1,
          1,
          1
        ],
        "baseColorTexture": {
          "index": 5,
          "texCoord": 0
        }
      }
    }
  ],
  "meshes": [
    {
      "primitives": [
        {
          "attributes": {
            "NORMAL": 1,
            "POSITION": 0,
            "TANGENT": 2
          },
          "indices": 3,
          "material": 0,
          "mode": 4
        }
      ]
    },
    {
      "primitives": [
        {
          "attributes": {
            "NORMAL": 5,
            "POSITION": 4,
            "TANGENT": 6,
            "TEXCOORD_0": 7
          },
          "indices": 8,
          "material": 1,
          "mode": 4
        }
      ]
    },
    {
      "primitives": [
        {
          "attributes": {
            "NORMAL": 10,
            "POSITION": 9,
            "TANGENT": 11,
            "TEXCOORD_0": 12
          },
          "indices": 13,
          "material": 2,
          "mode": 4
        }
      ]
    },
    {
      "primitives": [
        {
          "attributes": {
            "NORMAL": 15,
            "POSITION": 14,
            "TANGENT": 16,
            "TEXCOORD_0": 17
          },
          "indices": 18,
          "material": 3,
          "mode": 4
        }
      ]
    },
    {
      "primitives": [
        {
          "attributes": {
            "NORMAL": 20,
            "POSITION": 19,
            "TANGENT": 21,
            "TEXCOORD_0": 22
          },
          "indices": 23,
          "material": 4,
          "mode": 4
        }
      ]
    },
    {
      "primitives": [
        {
          "attributes": {
            "NORMAL": 25,
            "POSITION": 24,
            "TANGENT": 26,
            "TEXCOORD_0": 27
          },
          "indices": 28,
          "material": 5,
          "mode": 4
        }
      ]
    },
    {
      "primitives": [
        {
          "attributes": {
            "NORMAL": 30,
            "POSITION": 29,
            "TANGENT": 31,
            "TEXCOORD_0": 32
          },
          "indices": 33,
          "material": 6,
          "mode": 4
        }
      ]
    },
    {
      "primitives": [
        {
          "attributes": {
            "NORMAL": 35,
            "POSITION": 34,
            "TANGENT": 36,
            "TEXCOORD_0": 37
          },
          "indices": 38,
          "material": 7,
          "mode": 4
        }
      ]
    }
  ],
  "nodes": [
    {
      "children": [
        1
      ],
      "name": "RootNode (gltf orientation matrix)",
      "rotation": [
        -0.70710678118654746,
        -0,
        -0,
        0.70710678118654757
      ]
    },
    {
      "children": [
        2
      ],
      "name": "RootNode (model correction matrix)"
    },
    {
      "children": [
        3
      ],
      "name": "Indian Carved Bed.obj.cleaner"
    },
    {
      "children": [
        4,
        5,
        6,
        7,
        8,
        9,
        10,
        11
      ],
      "name": "Geode"
    },
    {
      "mesh": 0,
      "name": ""
    },
    {
      "mesh": 1,
      "name": ""
    },
    {
      "mesh": 2,
      "name": ""
    },
    {
      "mesh": 3,
      "name": ""
    },
    {
      "mesh": 4,
      "name": ""
    },
    {
      "mesh": 5,
      "name": ""
    },
    {
      "mesh": 6,
      "name": ""
    },
    {
      "mesh": 7,
      "name": ""
    }
  ],
  "samplers": [
    {
      "magFilter": 9728,
      "minFilter": 9728,
      "wrapS": 33071,
      "wrapT": 33071
    },
    {
      "magFilter": 9729,
      "minFilter": 9987,
      "wrapS": 10497,
      "wrapT": 10497
    }
  ],
  "scene": 0,
  "scenes": [
    {
      "name": "OSG_Scene",
      "nodes": [
        0
      ]
    }
  ],
  "textures": [
    {
      "sampler": 0,
      "source": 0
    },
    {
      "sampler": 1,
      "source": 1
    },
    {
      "sampler": 1,
      "source": 2
    },
    {
      "sampler": 1,
      "source": 3
    },
    {
      "sampler": 1,
      "source": 4
    },
    {
      "sampler": 1,
      "source": 5
    },
    {
      "sampler": 1,
      "source": 6
    }
  ]
}

