{
  "accessors": [
    {
      "bufferView": 2,
      "componentType": 5126,
      "count": 767,
      "max": [
        1,
        0.29390799999237061,
        0.38699200749397278
      ],
      "min": [
        -1,
        -0.44970500469207764,
        -0.40095400810241699
      ],
      "type": "VEC3"
    },
    {
      "bufferView": 2,
      "byteOffset": 9204,
      "componentType": 5126,
      "count": 767,
      "max": [
        1,
        1,
        1
      ],
      "min": [
        -1,
        -1,
        -1
      ],
      "type": "VEC3"
    },
    {
      "bufferView": 3,
      "componentType": 5126,
      "count": 767,
      "max": [
        0.99982297420501709,
        1,
        1,
        1
      ],
      "min": [
        -0.99986898899078369,
        -1,
        -0.98766499757766724,
        1
      ],
      "type": "VEC4"
    },
    {
      "bufferView": 1,
      "componentType": 5126,
      "count": 767,
      "max": [
        0.99970000982284546,
        0.97970002889633179
      ],
      "min": [
        0.00030000001424923539,
        0.00030000001424923539
      ],
      "type": "VEC2"
    },
    {
      "bufferView": 0,
      "componentType": 5125,
      "count": 3516,
      "max": [
        766
      ],
      "min": [
        0
      ],
      "type": "SCALAR"
    },
    {
      "bufferView": 2,
      "byteOffset": 18408,
      "componentType": 5126,
      "count": 120,
      "max": [
        -0.00040416899719275534,
        0.083167299628257751,
        0.40095400810241699
      ],
      "min": [
        -0.81640499830245972,
        -0.069183297455310822,
        -0.23932799696922302
      ],
      "type": "VEC3"
    },
    {
      "bufferView": 2,
      "byteOffset": 19848,
      "componentType": 5126,
      "count": 120,
      "max": [
        0.98492127656936646,
        1,
        0.98335224390029907
      ],
      "min": [
        -0.98492127656936646,
        -1,
        -0.98335224390029907
      ],
      "type": "VEC3"
    },
    {
      "bufferView": 3,
      "byteOffset": 12272,
      "componentType": 5126,
      "count": 120,
      "max": [
        0.58174002170562744,
        0.97589302062988281,
        0.83024698495864868,
        1
      ],
      "min": [
        -0.83352702856063843,
        -0.89749300479888916,
        -0.81789201498031616,
        1
      ],
      "type": "VEC4"
    },
    {
      "bufferView": 1,
      "byteOffset": 6136,
      "componentType": 5126,
      "count": 120,
      "max": [
        0.56309998035430908,
        0.73150002956390381
      ],
      "min": [
        0.19769999384880066,
        0.36629998683929443
      ],
      "type": "VEC2"
    },
    {
      "bufferView": 0,
      "byteOffset": 14064,
      "componentType": 5125,
      "count": 612,
      "max": [
        119
      ],
      "min": [
        0
      ],
      "type": "SCALAR"
    },
    {
      "bufferView": 2,
      "byteOffset": 21288,
      "componentType": 5126,
      "count": 120,
      "max": [
        0.82126200199127197,
        0.083167299628257751,
        0.40095400810241699
      ],
      "min": [
        0.0052610598504543304,
        -0.069183297455310822,
        -0.23932799696922302
      ],
      "type": "VEC3"
    },
    {
      "bufferView": 2,
      "byteOffset": 22728,
      "componentType": 5126,
      "count": 120,
      "max": [
        0.98492127656936646,
        1,
        0.98335224390029907
      ],
      "min": [
        -0.98492127656936646,
        -1,
        -0.98335224390029907
      ],
      "type": "VEC3"
    },
    {
      "bufferView": 3,
      "byteOffset": 14192,
      "componentType": 5126,
      "count": 120,
      "max": [
        0.58098602294921875,
        0.97589302062988281,
        0.83024799823760986,
        1
      ],
      "min": [
        -0.83004599809646606,
        -0.9010549783706665,
        -0.81793898344039917,
        1
      ],
      "type": "VEC4"
    },
    {
      "bufferView": 1,
      "byteOffset": 7096,
      "componentType": 5126,
      "count": 120,
      "max": [
        0.56309998035430908,
        0.36559998989105225
      ],
      "min": [
        0.19769999384880066,
        0.00030000001424923539
      ],
      "type": "VEC2"
    },
    {
      "bufferView": 0,
      "byteOffset": 16512,
      "componentType": 5125,
      "count": 612,
      "max": [
        119
      ],
      "min": [
        0
      ],
      "type": "SCALAR"
    },
    {
      "bufferView": 2,
      "byteOffset": 24168,
      "componentType": 5126,
      "count": 178,
      "max": [
        -0.00021758899674750865,
        0.44970500469207764,
        -0.031290199607610703
      ],
      "min": [
        -0.88651299476623535,
        0.079719401895999908,
        -0.27417200803756714
      ],
      "type": "VEC3"
    },
    {
      "bufferView": 2,
      "byteOffset": 26304,
      "componentType": 5126,
      "count": 178,
      "max": [
        1,
        0.99824714660644531,
        0.98762971162796021
      ],
      "min": [
        -0.99700081348419189,
        -0.9960675835609436,
        -0.9960675835609436
      ],
      "type": "VEC3"
    },
    {
      "bufferView": 3,
      "byteOffset": 16112,
      "componentType": 5126,
      "count": 178,
      "max": [
        0.70082098245620728,
        0.99611902236938477,
        0.99491000175476074,
        1
      ],
      "min": [
        -0.70141297578811646,
        -0.99585098028182983,
        -0.99864798784255981,
        1
      ],
      "type": "VEC4"
    },
    {
      "bufferView": 1,
      "byteOffset": 8056,
      "componentType": 5126,
      "count": 178,
      "max": [
        0.9757000207901001,
        0.63910001516342163
      ],
      "min": [
        0.74889999628067017,
        0.38870000839233398
      ],
      "type": "VEC2"
    },
    {
      "bufferView": 0,
      "byteOffset": 18960,
      "componentType": 5125,
      "count": 864,
      "max": [
        177
      ],
      "min": [
        0
      ],
      "type": "SCALAR"
    },
    {
      "bufferView": 2,
      "byteOffset": 28440,
      "componentType": 5126,
      "count": 178,
      "max": [
        0.89258497953414917,
        0.44970500469207764,
        -0.031290199607610703
      ],
      "min": [
        0.0062900800257921219,
        0.079719401895999908,
        -0.27417200803756714
      ],
      "type": "VEC3"
    },
    {
      "bufferView": 2,
      "byteOffset": 30576,
      "componentType": 5126,
      "count": 178,
      "max": [
        0.99696624279022217,
        0.99824714660644531,
        0.98762971162796021
      ],
      "min": [
        -1,
        -0.9960675835609436,
        -0.9960675835609436
      ],
      "type": "VEC3"
    },
    {
      "bufferView": 3,
      "byteOffset": 18960,
      "componentType": 5126,
      "count": 178,
      "max": [
        0.7015259861946106,
        0.99611902236938477,
        0.99489301443099976,
        -1
      ],
      "min": [
        -0.70124799013137817,
        -0.99585098028182983,
        -0.99852997064590454,
        -1
      ],
      "type": "VEC4"
    },
    {
      "bufferView": 1,
      "byteOffset": 9480,
      "componentType": 5126,
      "count": 178,
      "max": [
        0.9757000207901001,
        0.89020001888275146
      ],
      "min": [
        0.74889999628067017,
        0.63980001211166382
      ],
      "type": "VEC2"
    },
    {
      "bufferView": 0,
      "byteOffset": 22416,
      "componentType": 5125,
      "count": 864,
      "max": [
        177
      ],
      "min": [
        0
      ],
      "type": "SCALAR"
    },
    {
      "bufferView": 2,
      "byteOffset": 32712,
      "componentType": 5126,
      "count": 97,
      "max": [
        -0.48484700918197632,
        0.43650901317596436,
        0.18793700635433197
      ],
      "min": [
        -0.92024099826812744,
        0.045283198356628418,
        -0.082804098725318909
      ],
      "type": "VEC3"
    },
    {
      "bufferView": 2,
      "byteOffset": 33876,
      "componentType": 5126,
      "count": 97,
      "max": [
        0.86863219738006592,
        0.97270172834396362,
        0.98683613538742065
      ],
      "min": [
        -0.87220042943954468,
        -0.97266995906829834,
        -0.98766982555389404
      ],
      "type": "VEC3"
    },
    {
      "bufferView": 3,
      "byteOffset": 21808,
      "componentType": 5126,
      "count": 97,
      "max": [
        0.73469400405883789,
        0.8096650242805481,
        0.9375309944152832,
        1
      ],
      "min": [
        -0.98935198783874512,
        -0.76794397830963135,
        -0.98683100938796997,
        1
      ],
      "type": "VEC4"
    },
    {
      "bufferView": 1,
      "byteOffset": 10904,
      "componentType": 5126,
      "count": 97,
      "max": [
        0.9090999960899353,
        0.19059999287128448
      ],
      "min": [
        0.79689997434616089,
        0.00030000001424923539
      ],
      "type": "VEC2"
    },
    {
      "bufferView": 0,
      "byteOffset": 25872,
      "componentType": 5125,
      "count": 480,
      "max": [
        96
      ],
      "min": [
        0
      ],
      "type": "SCALAR"
    },
    {
      "bufferView": 2,
      "byteOffset": 35040,
      "componentType": 5126,
      "count": 97,
      "max": [
        0.92074799537658691,
        0.44408199191093445,
        0.21801500022411346
      ],
      "min": [
        0.51267600059509277,
        0.053112901747226715,
        -0.069893300533294678
      ],
      "type": "VEC3"
    },
    {
      "bufferView": 2,
      "byteOffset": 36204,
      "componentType": 5126,
      "count": 97,
      "max": [
        0.95841473340988159,
        0.94737929105758667,
        0.95841032266616821
      ],
      "min": [
        -0.95610922574996948,
        -0.94737714529037476,
        -0.96476322412490845
      ],
      "type": "VEC3"
    },
    {
      "bufferView": 3,
      "byteOffset": 23360,
      "componentType": 5126,
      "count": 97,
      "max": [
        0.90237897634506226,
        0.75217199325561523,
        0.9821929931640625,
        1
      ],
      "min": [
        -0.96409100294113159,
        -0.75397098064422607,
        -0.98631900548934937,
        1
      ],
      "type": "VEC4"
    },
    {
      "bufferView": 1,
      "byteOffset": 11680,
      "componentType": 5126,
      "count": 97,
      "max": [
        0.9090999960899353,
        0.3815000057220459
      ],
      "min": [
        0.79689997434616089,
        0.19130000472068787
      ],
      "type": "VEC2"
    },
    {
      "bufferView": 0,
      "byteOffset": 27792,
      "componentType": 5125,
      "count": 480,
      "max": [
        96
      ],
      "min": [
        0
      ],
      "type": "SCALAR"
    }
  ],
  "asset": {
    "generator": "Sketchfab (OSG glTF plugin)",
    "version": "2.0"
  },
  "bufferViews": [
    {
      "buffer": 0,
      "byteLength": 29712,
      "byteOffset": 0,
      "name": "floatBufferViews",
      "target": 34963
    },
    {
      "buffer": 0,
      "byteLength": 12456,
      "byteOffset": 29712,
      "byteStride": 8,
      "name": "floatBufferViews",
      "target": 34962
    },
    {
      "buffer": 0,
      "byteLength": 37368,
      "byteOffset": 42168,
      "byteStride": 12,
      "name": "floatBufferViews",
      "target": 34962
    },
    {
      "buffer": 0,
      "byteLength": 24912,
      "byteOffset": 79536,
      "byteStride": 16,
      "name": "floatBufferViews",
      "target": 34962
    }
  ],
  "buffers": [
    {
      "byteLength": 104448,
      "uri": "scene.bin"
    }
  ],
  "images": [
    {
      "uri": "textures/Sofa_metallicRoughness.png"
    },
    {
      "uri": "textures/Sofa_normal.jpeg"
    },
    {
      "uri": "textures/Sofa_baseColor.jpeg"
    }
  ],
  "materials": [
    {
      "doubleSided": true,
      "emissiveFactor": [
        0,
        0,
        0
      ],
      "name": "Sofa",
      "normalTexture": {
        "index": 1,
        "scale": 1,
        "texCoord": 0
      },
      "occlusionTexture": {
        "index": 0,
        "strength": 1,
        "texCoord": 0
      },
      "pbrMetallicRoughness": {
        "baseColorFactor": [
          1,
          1,
          1,
          1
        ],
        "baseColorTexture": {
          "index": 2,
          "texCoord": 0
        },
        "metallicFactor": 1,
        "metallicRoughnessTexture": {
          "index": 0,
          "texCoord": 0
        },
        "roughnessFactor": 1
      }
    }
  ],
  "meshes": [
    {
      "name": "defaultMaterial",
      "primitives": [
        {
          "attributes": {
            "NORMAL": 1,
            "POSITION": 0,
            "TANGENT": 2,
            "TEXCOORD_0": 3
          },
          "indices": 4,
          "material": 0,
          "mode": 4
        }
      ]
    },
    {
      "name": "defaultMaterial",
      "primitives": [
        {
          "attributes": {
            "NORMAL": 6,
            "POSITION": 5,
            "TANGENT": 7,
            "TEXCOORD_0": 8
          },
          "indices": 9,
          "material": 0,
          "mode": 4
        }
      ]
    },
    {
      "name": "defaultMaterial",
      "primitives": [
        {
          "attributes": {
            "NORMAL": 11,
            "POSITION": 10,
            "TANGENT": 12,
            "TEXCOORD_0": 13
          },
          "indices": 14,
          "material": 0,
          "mode": 4
        }
      ]
    },
    {
      "name": "defaultMaterial",
      "primitives": [
        {
          "attributes": {
            "NORMAL": 16,
            "POSITION": 15,
            "TANGENT": 17,
            "TEXCOORD_0": 18
          },
          "indices": 19,
          "material": 0,
          "mode": 4
        }
      ]
    },
    {
      "name": "defaultMaterial",
      "primitives": [
        {
          "attributes": {
            "NORMAL": 21,
            "POSITION": 20,
            "TANGENT": 22,
            "TEXCOORD_0": 23
          },
          "indices": 24,
          "material": 0,
          "mode": 4
        }
      ]
    },
    {
      "name": "defaultMaterial",
      "primitives": [
        {
          "attributes": {
            "NORMAL": 26,
            "POSITION": 25,
            "TANGENT": 27,
            "TEXCOORD_0": 28
          },
          "indices": 29,
          "material": 0,
          "mode": 4
        }
      ]
    },
    {
      "name": "defaultMaterial",
      "primitives": [
        {
          "attributes": {
            "NORMAL": 31,
            "POSITION": 30,
            "TANGENT": 32,
            "TEXCOORD_0": 33
          },
          "indices": 34,
          "material": 0,
          "mode": 4
        }
      ]
    }
  ],
  "nodes": [
    {
      "children": [
        1
      ],
      "name": "RootNode (gltf orientation matrix)",
      "rotation": [
        -0.70710678118654746,
        -0,
        -0,
        0.70710678118654757
      ]
    },
    {
      "children": [
        2
      ],
      "name": "RootNode (model correction matrix)"
    },
    {
      "children": [
        3,
        6,
        9,
        12,
        15,
        18,
        21
      ],
      "matrix": [
        1,
        0,
        0,
        0,
        0,
        -4.3711390063094768e-08,
        0.999999999999999,
        0,
        0,
        -0.999999999999999,
        -4.3711390063094768e-08,
        0,
        0,
        0,
        0,
        1
      ],
      "name": "Collada visual scene group"
    },
    {
      "children": [
        4
      ],
      "name": "sofa_low_Cube"
    },
    {
      "children": [
        5
      ],
      "name": "Geode"
    },
    {
      "mesh": 0,
      "name": "defaultMaterial"
    },
    {
      "children": [
        7
      ],
      "name": "seatpillow_2_low_Cube.001"
    },
    {
      "children": [
        8
      ],
      "name": "Geode"
    },
    {
      "mesh": 1,
      "name": "defaultMaterial"
    },
    {
      "children": [
        10
      ],
      "name": "seatpillow_1_low_Cube.004"
    },
    {
      "children": [
        11
      ],
      "name": "Geode"
    },
    {
      "mesh": 2,
      "name": "defaultMaterial"
    },
    {
      "children": [
        13
      ],
      "name": "backpillow_1_low_Cube.005"
    },
    {
      "children": [
        14
      ],
      "name": "Geode"
    },
    {
      "mesh": 3,
      "name": "defaultMaterial"
    },
    {
      "children": [
        16
      ],
      "name": "backpillow_2_low_Cube.006"
    },
    {
      "children": [
        17
      ],
      "name": "Geode"
    },
    {
      "mesh": 4,
      "name": "defaultMaterial"
    },
    {
      "children": [
        19
      ],
      "name": "pillow_1_low_Cube.008"
    },
    {
      "children": [
        20
      ],
      "name": "Geode"
    },
    {
      "mesh": 5,
      "name": "defaultMaterial"
    },
    {
      "children": [
        22
      ],
      "name": "pillow_2_low_Cube.009"
    },
    {
      "children": [
        23
      ],
      "name": "Geode"
    },
    {
      "mesh": 6,
      "name": "defaultMaterial"
    }
  ],
  "samplers": [
    {
      "magFilter": 9729,
      "minFilter": 9987,
      "wrapS": 10497,
      "wrapT": 10497
    }
  ],
  "scene": 0,
  "scenes": [
    {
      "name": "OSG_Scene",
      "nodes": [
        0
      ]
    }
  ],
  "textures": [
    {
      "sampler": 0,
      "source": 0
    },
    {
      "sampler": 0,
      "source": 1
    },
    {
      "sampler": 0,
      "source": 2
    }
  ]
}

